<svg id="Capa_1" enable-background="new 0 0 512 512" height="512" viewBox="0 0 512 512" width="512" xmlns="http://www.w3.org/2000/svg"><g><path d="m234.774 303.827c-3.94-2.813-8.965-3.647-13.521-2.051l-4.614 1.538c-35.905 11.962-64.385 37.44-80.64 69.653v77.968c3.067-.161 6.037-1.26 9.36-2.25 57.204-19.057 95.641-72.377 95.641-132.685 0-4.819-2.314-9.346-6.226-12.173z" fill="#79cc52"/><path d="m136 312.968c-16.254-32.214-44.734-57.691-80.64-69.653l-4.614-1.538c-4.614-1.553-9.595-.791-13.521 2.051-3.911 2.826-6.225 7.353-6.225 12.172 0 60.308 38.438 113.628 95.64 132.686l4.614 1.538c1.591.54 3.168.403 4.746.399z" fill="#a0e65c"/><path d="m136 180c-8.291 0-15 6.709-15 15v302c0 8.291 6.709 15 15 15s15-6.709 15-15v-302c0-8.291-6.709-15-15-15z" fill="#c1f261"/><path d="m151 497v-302c0-8.291-6.709-15-15-15v332c8.291 0 15-6.709 15-15z" fill="#a0e65c"/><path d="m206.605 4.395c-5.859-5.859-15.352-5.859-21.211 0-7.892 7.892-14.083 17.137-19.395 26.858-5.312-9.721-11.503-18.966-19.395-26.858-2.928-2.93-6.766-4.395-10.604-4.395s-7.676 1.465-10.605 4.395c-7.892 7.892-14.083 17.137-19.395 26.858-5.312-9.721-11.503-18.966-19.395-26.858-5.859-5.859-15.352-5.859-21.211 0-21.855 21.855-34.394 52.119-34.394 83.027v17.578c0 57.891 47.109 105 105 105s105-47.109 105-105v-17.578c0-30.908-12.539-61.172-34.395-83.027z" fill="#ff73b9"/><path d="m241 105v-17.578c0-30.908-12.539-61.172-34.395-83.027-5.859-5.859-15.352-5.859-21.211 0-7.892 7.892-14.083 17.137-19.395 26.858-5.312-9.721-11.503-18.966-19.395-26.858-2.928-2.93-6.766-4.395-10.604-4.395v210c57.891 0 105-47.109 105-105z" fill="#f25588"/><path d="m474.774 243.827c-3.94-2.813-8.965-3.647-13.521-2.051l-4.614 1.538c-35.905 11.962-64.385 37.44-80.64 69.653v77.968c3.067-.161 6.037-1.26 9.36-2.25 57.204-19.057 95.641-72.377 95.641-132.685 0-4.819-2.314-9.346-6.226-12.173z" fill="#79cc52"/><path d="m376 372.968c-16.254-32.214-44.734-57.691-80.64-69.653l-4.614-1.538c-4.614-1.553-9.595-.791-13.521 2.051-3.911 2.826-6.225 7.353-6.225 12.172 0 60.308 38.438 113.628 95.64 132.686l4.614 1.538c1.591.54 3.168.403 4.746.399z" fill="#a0e65c"/><path d="m376 180c-8.291 0-15 6.709-15 15v302c0 8.291 6.709 15 15 15s15-6.709 15-15v-302c0-8.291-6.709-15-15-15z" fill="#c1f261"/><path d="m391 497v-302c0-8.291-6.709-15-15-15v332c8.291 0 15-6.709 15-15z" fill="#a0e65c"/><path d="m446.605 4.395c-5.859-5.859-15.352-5.859-21.211 0-7.892 7.892-14.083 17.137-19.395 26.858-5.312-9.721-11.503-18.966-19.395-26.858-2.928-2.93-6.766-4.395-10.604-4.395s-7.676 1.465-10.605 4.395c-7.892 7.892-14.083 17.137-19.395 26.858-5.312-9.721-11.503-18.966-19.395-26.858-5.859-5.859-15.352-5.859-21.211 0-21.855 21.855-34.394 52.119-34.394 83.027v17.578c0 57.891 47.109 105 105 105s105-47.109 105-105v-17.578c0-30.908-12.539-61.172-34.395-83.027z" fill="#ff73b9"/><path d="m481 105v-17.578c0-30.908-12.539-61.172-34.395-83.027-5.859-5.859-15.352-5.859-21.211 0-7.892 7.892-14.083 17.137-19.395 26.858-5.312-9.721-11.503-18.966-19.395-26.858-2.928-2.93-6.766-4.395-10.604-4.395v210c57.891 0 105-47.109 105-105z" fill="#f25588"/></g></svg>